<?xml version="1.0" standalone="no"?>
<!DOCTYPE svg PUBLIC "-//W3C//DTD SVG 20010904//EN"
 "http://www.w3.org/TR/2001/REC-SVG-20010904/DTD/svg10.dtd">
<svg version="1.0" xmlns="http://www.w3.org/2000/svg"
 width="4096.000000pt" height="4096.000000pt" viewBox="0 0 4096.000000 4096.000000"
 preserveAspectRatio="xMidYMid meet">

<g transform="translate(0.000000,4096.000000) scale(0.100000,-0.100000)"
fill="white" stroke="none">
<path d="M23505 36554 c-982 -26 -1828 -162 -2610 -420 -1293 -428 -2319
-1173 -3088 -2242 -696 -968 -1157 -2242 -1311 -3627 -52 -460 -50 -354 -55
-2760 l-6 -2250 -1722 -3 -1723 -2 0 -3080 0 -3080 1725 0 1725 0 0 -8720 0
-8720 3623 2 3622 3 3 8718 2 8717 2445 0 c1652 0 2445 3 2445 10 0 17 620
6062 626 6108 l6 42 -2761 0 -2761 0 0 1903 c0 2035 0 2019 49 2247 140 638
576 1043 1224 1135 86 12 411 15 2130 15 l2027 0 0 2989 0 2989 -62 6 c-35 3
-1141 8 -2458 11 -1317 3 -2525 7 -2685 9 -159 1 -344 2 -410 0z"/>
</g>
</svg>
