<?xml version="1.0" standalone="no"?>
<!DOCTYPE svg PUBLIC "-//W3C//DTD SVG 20010904//EN"
 "http://www.w3.org/TR/2001/REC-SVG-20010904/DTD/svg10.dtd">
<svg version="1.0" xmlns="http://www.w3.org/2000/svg"
 width="4096.000000pt" height="4096.000000pt" viewBox="0 0 4096.000000 4096.000000"
 preserveAspectRatio="xMidYMid meet">

<g transform="translate(0.000000,4096.000000) scale(0.100000,-0.100000)"
fill="white" stroke="none">
<path d="M12410 37483 c-2196 -95 -4067 -663 -5663 -1720 -519 -344 -963 -708
-1417 -1162 -1750 -1751 -2736 -4161 -2860 -6991 -16 -364 -8 -16005 8 -16225
7 -88 21 -263 33 -390 260 -2900 1468 -5298 3529 -7006 1100 -911 2424 -1577
3875 -1950 862 -221 1686 -335 2658 -369 463 -16 15670 -8 15897 8 533 39 845
70 1140 113 2146 313 3946 1118 5440 2433 159 140 516 492 673 664 1451 1588
2313 3682 2516 6112 48 567 46 212 46 8575 0 8249 1 7972 -41 8495 -189 2357
-1019 4405 -2439 6025 -147 167 -462 494 -660 686 -877 845 -1948 1518 -3150
1979 -210 81 -615 216 -836 279 -882 252 -1763 392 -2774 441 -183 9 -15773
12 -15975 3z m16180 -3336 c883 -73 1564 -213 2248 -463 957 -350 1845 -932
2441 -1599 869 -973 1447 -2182 1695 -3545 47 -259 84 -552 118 -940 16 -188
24 -15433 8 -15815 -21 -514 -70 -925 -165 -1385 -353 -1709 -1251 -3128
-2586 -4083 -900 -643 -1989 -1060 -3229 -1237 -384 -55 -661 -77 -1120 -90
-441 -13 -14817 -13 -15260 0 -440 13 -760 39 -1125 91 -1371 197 -2538 680
-3500 1448 -266 213 -483 422 -703 678 -999 1166 -1535 2659 -1622 4523 -14
298 -14 15467 0 15755 88 1822 625 3295 1629 4469 978 1145 2395 1861 4191
2120 265 38 737 79 1020 89 47 2 3611 3 7920 2 7272 -1 7850 -2 8040 -18z"/>
<path d="M29830 31203 c-279 -21 -581 -108 -828 -239 -338 -178 -634 -461
-828 -791 -192 -325 -285 -673 -285 -1063 0 -344 70 -641 223 -942 206 -406
535 -732 943 -933 565 -279 1241 -287 1809 -21 567 265 993 780 1145 1385 81
322 83 689 4 1011 -169 696 -690 1262 -1370 1489 -254 85 -556 124 -813 104z"/>
<path d="M20135 28894 c-281 -8 -660 -38 -944 -75 -2832 -364 -5362 -2045
-6813 -4529 -777 -1329 -1209 -2845 -1246 -4372 -12 -483 7 -937 58 -1373 280
-2377 1466 -4544 3320 -6061 1895 -1551 4331 -2280 6795 -2034 1655 166 3242
784 4580 1785 389 291 641 510 1006 875 405 405 683 730 998 1169 741 1032
1268 2225 1530 3466 309 1464 256 2976 -155 4413 -315 1104 -863 2183 -1578
3107 -469 606 -1047 1188 -1651 1661 -1483 1162 -3269 1843 -5120 1953 -193
11 -616 19 -780 15z m810 -3348 c532 -58 999 -166 1470 -341 1178 -439 2205
-1257 2900 -2309 560 -849 888 -1813 965 -2831 23 -302 12 -777 -26 -1100
-199 -1721 -1170 -3288 -2639 -4260 -730 -483 -1556 -797 -2415 -919 -320 -46
-406 -51 -825 -51 -460 0 -658 16 -1025 81 -2288 408 -4143 2133 -4720 4389
-77 299 -124 577 -162 945 -20 192 -16 852 5 1055 77 710 239 1303 526 1923
388 843 1003 1611 1758 2200 935 728 2057 1153 3263 1236 142 9 783 -3 925
-18z"/>
</g>
</svg>
