<?xml version="1.0" standalone="no"?>
<!DOCTYPE svg PUBLIC "-//W3C//DTD SVG 20010904//EN"
 "http://www.w3.org/TR/2001/REC-SVG-20010904/DTD/svg10.dtd">
<svg version="1.0" xmlns="http://www.w3.org/2000/svg"
 width="4096.000000pt" height="4096.000000pt" viewBox="0 0 4096.000000 4096.000000"
 preserveAspectRatio="xMidYMid meet">

<g transform="translate(0.000000,4096.000000) scale(0.100000,-0.100000)"
fill="white" stroke="none">
<path d="M17385 35829 c-2294 -99 -4470 -791 -6395 -2032 -1942 -1252 -3525
-3027 -4550 -5102 -654 -1324 -1063 -2708 -1234 -4175 -61 -525 -80 -873 -80
-1475 -1 -498 7 -692 40 -1085 174 -2060 836 -4022 1952 -5780 742 -1169 1717
-2256 2799 -3122 1447 -1156 3069 -1968 4843 -2422 1725 -442 3558 -514 5326
-211 1663 286 3253 902 4697 1822 98 62 183 113 190 113 6 0 1508 -1496 3337
-3324 2670 -2668 3345 -3338 3425 -3398 371 -275 765 -434 1235 -500 156 -21
516 -16 685 10 576 90 1054 336 1460 753 325 334 543 727 650 1174 55 228 69
351 69 605 0 254 -14 377 -69 605 -80 335 -231 653 -443 940 -60 80 -730 755
-3398 3425 -1828 1829 -3324 3331 -3324 3338 0 7 41 77 91 154 369 570 714
1220 994 1868 890 2065 1214 4337 939 6590 -144 1191 -465 2379 -939 3480
-798 1852 -2023 3493 -3570 4785 -1958 1634 -4337 2643 -6850 2904 -601 63
-1301 85 -1880 60z m946 -3839 c1025 -51 1964 -253 2895 -623 2569 -1021 4547
-3205 5308 -5860 330 -1152 426 -2398 275 -3587 -318 -2509 -1679 -4762 -3759
-6221 -1887 -1324 -4209 -1864 -6500 -1513 -1689 259 -3248 993 -4565 2148
-356 312 -745 722 -1061 1116 -1079 1346 -1749 2985 -1918 4690 -33 331 -40
487 -40 900 0 413 7 569 40 900 236 2385 1436 4584 3331 6102 942 755 2072
1330 3238 1646 884 240 1858 346 2756 302z"/>
</g>
</svg>
