<?xml version="1.0" standalone="no"?>
<!DOCTYPE svg PUBLIC "-//W3C//DTD SVG 20010904//EN"
 "http://www.w3.org/TR/2001/REC-SVG-20010904/DTD/svg10.dtd">
<svg version="1.0" xmlns="http://www.w3.org/2000/svg"
 width="4096.000000pt" height="4096.000000pt" viewBox="0 0 4096.000000 4096.000000"
 preserveAspectRatio="xMidYMid meet">

<g transform="translate(0.000000,4096.000000) scale(0.100000,-0.100000)"
fill="white" stroke="none">
<path d="M27335 35829 c-1913 -101 -3709 -902 -5062 -2257 -804 -804 -1414
-1758 -1804 -2822 -244 -667 -390 -1352 -451 -2115 -16 -207 -16 -909 0 -1115
30 -376 87 -775 151 -1065 16 -71 28 -131 26 -133 -4 -5 -467 26 -740 49
-3716 310 -7262 1551 -10360 3624 -1244 833 -2261 1669 -3336 2744 -579 580
-1021 1064 -1443 1584 -44 53 -83 94 -87 90 -34 -35 -271 -496 -376 -733 -330
-742 -546 -1550 -627 -2350 -54 -523 -54 -1074 0 -1605 223 -2216 1412 -4244
3247 -5543 81 -57 146 -106 144 -108 -7 -7 -369 16 -567 37 -742 75 -1481 265
-2179 561 -177 75 -532 246 -670 323 l-84 47 6 -268 c38 -1524 489 -2938 1335
-4184 1103 -1626 2791 -2776 4706 -3208 l170 -39 -45 -11 c-1047 -279 -2207
-335 -3229 -156 -80 14 -162 28 -183 31 l-37 6 51 -149 c713 -2077 2290 -3765
4319 -4624 785 -332 1681 -543 2510 -591 102 -5 223 -13 270 -17 l84 -7 -199
-151 c-1403 -1060 -2915 -1852 -4570 -2394 -2088 -683 -4343 -916 -6533 -674
-79 9 -145 14 -147 12 -5 -4 318 -209 585 -371 823 -498 1751 -975 2640 -1357
2297 -988 4717 -1566 7215 -1725 532 -33 739 -39 1415 -39 676 0 952 7 1495
39 4187 251 8009 1568 11250 3877 2628 1872 4822 4357 6440 7293 1619 2939
2595 6235 2809 9490 39 594 52 1419 33 2085 l-8 275 128 95 c651 484 1160 925
1763 1529 569 570 1028 1097 1476 1696 210 280 487 675 480 682 -2 3 -78 -27
-168 -65 -1147 -491 -2353 -842 -3591 -1047 -291 -48 -647 -99 -653 -92 -2 2
42 32 98 67 1392 863 2506 2195 3111 3720 68 172 180 490 172 490 -3 0 -35
-18 -72 -41 -273 -167 -957 -524 -1344 -702 -1082 -497 -2166 -856 -3293
-1090 l-205 -43 -173 174 c-1554 1563 -3695 2388 -5893 2271z"/>
</g>
</svg>
