<?xml version="1.0" standalone="no"?>
<!DOCTYPE svg PUBLIC "-//W3C//DTD SVG 20010904//EN"
 "http://www.w3.org/TR/2001/REC-SVG-20010904/DTD/svg10.dtd">
<svg version="1.0" xmlns="http://www.w3.org/2000/svg"
 width="4096.000000pt" height="4096.000000pt" viewBox="0 0 4096.000000 4096.000000"
 preserveAspectRatio="xMidYMid meet">

<g transform="translate(0.000000,4096.000000) scale(0.100000,-0.100000)"
fill="white" stroke="none">
<path d="M19695 34813 c-585 -3 -2150 -21 -2895 -33 -5514 -92 -9552 -321
-11535 -656 -762 -129 -1234 -272 -1755 -534 -1048 -526 -1890 -1400 -2370
-2460 -149 -331 -240 -602 -345 -1033 -434 -1787 -711 -4863 -785 -8712 -13
-658 -13 -1152 0 -1810 74 -3852 351 -6925 786 -8715 63 -259 77 -309 146
-520 537 -1646 1910 -2927 3593 -3353 1255 -318 3861 -547 7955 -697 3126
-114 7287 -168 10235 -131 7401 93 12167 390 13831 862 1657 469 2967 1745
3488 3398 260 823 505 2368 661 4166 177 2055 278 4747 247 6628 -75 4531
-450 8125 -1003 9606 -177 474 -454 963 -771 1364 -734 926 -1740 1560 -2893
1826 -1588 365 -5180 617 -10565 741 -1817 42 -4589 71 -6025 63z m-955 -9549
c1285 -742 3673 -2121 5307 -3064 1635 -943 2972 -1717 2972 -1720 0 -5
-10609 -6132 -10629 -6138 -7 -3 -10 2030 -10 6138 0 4910 3 6141 13 6137 6
-3 1063 -612 2347 -1353z"/>
</g>
</svg>
